<svg width="640" height="184" xmlns="http://www.w3.org/2000/svg">

 <g>
  <title>Layer 1</title>
  <path id="svg_2" fill="#bf8f47" d="m192,0l0,8l-40,0l0,8l-32,0l0,8l-24,0l0,8l-8,0l0,8l8,0l0,24l8,0l0,24l8,0l0,16l24,0l0,-8l24,0l0,-8l72,0l0,-8l176,0l0,8l72,0l0,8l24,0l0,8l24,0l0,-16l8,0l0,-24l8,0l0,-24l8,0l0,-8l-8,0l0,-8l-24,0l0,-8l-32,0l0,-8l-40,0l0,-8l-256,0z"/>
  <path id="svg_4" fill="#8e5a31" d="m192,8l0,8l-40,0l0,8l-32,0l0,8l-24,0l0,8l8,0l0,24l8,0l0,24l8,0l0,8l16,0l0,-8l24,0l0,-8l72,0l0,-8l176,0l0,8l72,0l0,8l24,0l0,8l16,0l0,-8l8,0l0,-24l8,0l0,-24l8,0l0,-8l-24,0l0,-8l-32,0l0,-8l-40,0l0,-8l-256,0z"/>
  <path id="svg_5" fill="#ffffff" d="m232,16l0,8l-8,0l0,32l8,0l0,8l24,0l0,-8l-24,0l0,-16l16,0l0,-8l-16,0l0,-8l24,0l0,-8l-24,0m48,0l0,8l-8,0l0,40l8,0l0,-16l24,0l0,16l8,0l0,-40l-8,0l0,-8l-24,0m48,0l0,48l32,0l0,-8l8,0l0,-24l-8,0l0,-8l-8,0l0,-8l-24,0m64,0l0,8l-8,0l0,32l8,0l0,8l24,0l0,-8l-24,0l0,-16l16,0l0,-8l-16,0l0,-8l24,0l0,-8l-24,0m-216,8l0,40l8,0l0,8l32,0l0,-8l-32,0l0,-40l-8,0z"/>
  <path id="svg_6" fill="#8e5a31" d="m280,24l0,16l24,0l0,-16l-24,0m56,0l0,32l24,0l0,-24l-8,0l0,-8l-16,0z"/>
  <path id="svg_7" fill="#ffffff" d="m432,24l0,48l8,0l0,-16l24,0l0,16l8,0l0,-16l-8,0l0,-8l8,0l0,-16l-8,0l0,-8l-32,0z"/>
  <path id="svg_8" fill="#8e5a31" d="m440,32l0,16l24,0l0,-16l-24,0m-360,32l0,8l-16,0l0,8l-16,0l0,8l-16,0l0,8l-16,0l0,8l-16,0l0,16l48,0l0,16l-8,0l0,32l-8,0l0,16l8,0l0,-8l24,0l0,-8l16,0l0,-8l16,0l0,-8l24,0l0,-16l24,0l0,-8l24,0l0,-8l-24,0l0,-8l-24,0l0,-8l-8,0l0,8l8,0l0,8l24,0l0,8l-24,0l0,8l-24,0l0,16l-16,0l0,8l-16,0l0,8l-16,0l0,-32l8,0l0,-16l-8,0l0,-8l-32,0l0,-8l16,0l0,-8l16,0l0,-8l16,0l0,-8l16,0l0,-8l16,0l0,-8l-16,0z"/>
  <path id="svg_9" fill="#4f291d" d="m96,64l0,8l-16,0l0,8l-16,0l0,8l-16,0l0,8l-16,0l0,8l-16,0l0,8l32,0l0,8l8,0l0,16l-8,0l0,32l16,0l0,-8l16,0l0,-8l16,0l0,-16l24,0l0,-8l24,0l0,-8l-24,0l0,-8l-8,0l0,-24l-8,0l0,-24l-8,0m440,0l0,24l-8,0l0,24l-8,0l0,-8l-16,0l0,-8l-24,0l0,-8l-24,0l0,8l8,0l0,16l-8,0l0,16l16,0l0,-8l24,0l0,8l24,0l0,8l24,0l0,16l16,0l0,8l16,0l0,8l16,0l0,-32l-8,0l0,-16l8,0l0,-8l32,0l0,-8l-16,0l0,-8l-16,0l0,-8l-16,0l0,-8l-16,0l0,-8l-16,0l0,-8l-8,0z"/>
  <path id="svg_10" fill="#8e5a31" d="m544,64l0,8l16,0l0,-8l-16,0m16,8l0,8l16,0l0,-8l-16,0z"/>
  <path id="svg_12" fill="#8e5a31" d="m576,80l0,8l16,0l0,-8l-16,0z"/>
  <path id="svg_13" fill="#4f291d" d="m160,88l0,8l-24,0l0,8l-16,0l0,8l24,0l0,8l24,0l0,8l16,0l0,-16l-8,0l0,-16l8,0l0,-8l-24,0z"/>
  <path id="svg_14" fill="#8e5a31" d="m592,88l0,8l16,0l0,-8l-16,0m16,8l0,8l16,0l0,-8l-16,0m-88,8l0,8l8,0l0,-8l-8,0m104,0l0,8l-32,0l0,8l-8,0l0,16l8,0l0,32l-16,0l0,8l24,0l0,8l8,0l0,-16l-8,0l0,-32l-8,0l0,-16l48,0l0,-16l-16,0m-128,8l0,8l24,0l0,-8l-24,0z"/>
  <path id="svg_16" fill="#8e5a31" d="m472,120l0,8l24,0l0,-8l-24,0z"/>
  <path id="svg_18" fill="#8e5a31" d="m496,128l0,8l24,0l0,-8l-24,0m24,8l0,16l24,0l0,-16l-24,0m24,16l0,8l16,0l0,-8l-16,0m16,8l0,8l16,0l0,-8l-16,0z"/>
 </g>
</svg>